<svg width="800" height="512" viewBox="0 0 800 512" fill="none" xmlns="http://www.w3.org/2000/svg">
  <!-- Combined Logo + Text -->
  
  <!-- Logo Part (scaled down) -->
  <g transform="translate(100, 156) scale(0.6)">
    <!-- Bowl -->
    <path d="M140 280 Q140 360 256 360 Q372 360 372 280 L372 260 Q372 240 256 240 Q140 240 140 260 Z" 
          fill="#FF6B6B"/>
    
    <!-- Bowl Rim -->
    <ellipse cx="256" cy="260" rx="116" ry="20" fill="#FF7675"/>
    
    <!-- Steam Lines -->
    <path d="M200 220 Q205 200 210 180 Q215 160 220 140" 
          stroke="#FF6B6B" stroke-width="8" fill="none" stroke-linecap="round" opacity="0.5"/>
    <path d="M256 210 Q261 190 266 170 Q271 150 276 130" 
          stroke="#FF6B6B" stroke-width="10" fill="none" stroke-linecap="round" opacity="0.6"/>
    <path d="M312 220 Q307 200 302 180 Q297 160 292 140" 
          stroke="#FF6B6B" stroke-width="8" fill="none" stroke-linecap="round" opacity="0.5"/>
  </g>
  
  <!-- Divider -->
  <line x1="380" y1="206" x2="420" y2="306" stroke="#E0E0E0" stroke-width="2"/>
  
  <!-- Text Part -->
  <text x="480" y="280" font-family="system-ui, -apple-system, sans-serif" font-size="72" font-weight="bold" 
        fill="#FF6B6B">pho.chat</text>
</svg>